<?xml version="1.0" encoding="utf-8"?>
<!-- Generator: Adobe Illustrator 26.5.0, SVG Export Plug-In . SVG Version: 6.00 Build 0)  -->
<svg version="1.1" id="Capa_1" xmlns="http://www.w3.org/2000/svg" xmlns:xlink="http://www.w3.org/1999/xlink" x="0px" y="0px"
	 viewBox="0 0 500 500" style="enable-background:new 0 0 500 500;" xml:space="preserve">
<style type="text/css">
	.st0{fill:none;stroke:#000000;stroke-width:40;stroke-miterlimit:10;}
</style>
<path class="st0" d="M38.8,199c10.6,4.6,73.7,30.8,119,0c7.6-5.2,33.4-22.8,29.7-45.1c-3.6-21.7-32.4-31.1-33.9-31.6
	c-14-1.3-22.3,2.1-27.4,6c-25.1,19.2-16.8,83.1,21.2,160c43.9,66.1,74.4,95.9,91.6,89.6c10.9-4,16.4-22.6,16.6-55.7
	c-1.5-25.3-3.1-50.6-4.6-75.9c-5.8-23.8,10.9-45.1,29.2-46.5c15-1.1,31.3,11.1,35.4,30c5.5,19.4,10.5,36.6,14.9,51.2
	c9.8,32.9,13.3,42.7,20,54.5c8.4,14.7,17.9,25.2,24.6,31.8c18.5,13,30.1,9.8,32.7,9c19.4-6.3,32.3-41.7,20.6-86.9
	c-3.6-23.4-6.4-67.6,16.4-111.8c5.1-9.8,10.7-18.3,16.4-25.6"/>
</svg>
